Coordinates
version=1
nRows=6
nColumns=34
inDegrees=yes

Units are S.I. units (second, meters, Newtons, ...)
If the header above contains a line with 'inDegrees', this indicates whether rotational values are in degrees (yes) or radians (no).

endheader
time	pelvis_tilt	pelvis_list	pelvis_rotation	pelvis_tx	pelvis_ty	pelvis_tz	hip_flexion_r	hip_adduction_r	hip_rotation_r	knee_angle_r	ankle_angle_r	subtalar_angle_r	mtp_angle_r	hip_flexion_l	hip_adduction_l	hip_rotation_l	knee_angle_l	ankle_angle_l	subtalar_angle_l	mtp_angle_l	lumbar_extension	lumbar_bending	lumbar_rotation	arm_flex_r	arm_add_r	arm_rot_r	elbow_flex_r	pro_sup_r	arm_flex_l	arm_add_l	arm_rot_l	elbow_flex_l	pro_sup_l
      1.48333330	     -0.70166888	      3.38515431	     -2.84458189	     -0.02489884	      1.14369504	     -0.07422896	     -3.80897373	     -3.42290094	     -4.87642942	      3.81270610	      8.46205495	    -10.60963513	      0.00000000	     -5.63464029	      1.09719075	    -14.28057324	      0.66478337	      4.51649578	     -2.74273295	      0.00000000	      1.96053746	     -0.77318150	      2.48835815	    -21.55635899	    -22.14042767	     -3.61070726	    125.01210442	     94.72267067	     -7.30403723	    -13.24627711	     -7.91018998	     25.15749967	     76.70859706
      1.50000000	     -0.44411963	      3.35507673	     -2.92700022	     -0.02316362	      1.14182187	     -0.07397875	     -4.29581882	     -3.43195360	     -4.90046518	      3.43788857	      8.18199544	    -10.69785970	      0.00000000	     -6.01856873	      1.11674985	    -14.42291998	      0.63446824	      4.48293984	     -2.88918142	      0.00000000	      1.92697094	     -0.50027272	      3.29985754	    -18.23256373	    -23.32358868	     -0.19366099	    129.62258218	     96.87849694	     -5.96590260	    -12.56842668	     -9.66767550	     23.46267288	     74.93257961
      1.51666670	     -0.66932503	      3.33711128	     -3.09785651	     -0.02200577	      1.14339939	     -0.07417769	     -4.15311880	     -3.41330015	     -4.64153742	      3.21902996	      8.07284837	    -10.52462483	      0.00000000	     -5.79967326	      1.06945824	    -14.63821983	      0.66840645	      4.04595050	     -2.66531405	      0.00000000	      2.63548632	     -0.42400830	      2.46534681	    -11.88424638	    -23.90252213	      4.49762837	    131.14998929	     99.66561965	     -6.13193944	    -12.00798316	    -12.87842559	     21.90432849	     72.31911889
      1.53333330	     -0.74696152	      3.35711468	     -3.28012321	     -0.02198320	      1.14373445	     -0.07378054	     -4.13502855	     -3.45266168	     -4.43942593	      3.01187170	      7.64356434	    -10.70549883	      0.00000000	     -5.83353086	      1.13553159	    -14.76158983	      0.54127272	      3.82921983	     -2.70334047	      0.00000000	      3.15662501	     -0.32580469	      1.16256604	     -4.84430055	    -23.59582484	     10.22143458	    131.48287094	    101.39417273	     -7.12953587	    -11.08354916	    -16.47368632	     21.98250027	     70.15830991
      1.55000000	     -0.81469946	      3.36552264	     -3.50208121	     -0.02009320	      1.14626103	     -0.07434329	     -4.04046179	     -3.50485270	     -4.47471886	      3.06138871	      7.74991982	    -10.26451011	      0.00000000	     -5.96302540	      1.21334545	    -14.74097997	      0.28113398	      3.87126863	     -2.61037368	      0.00000000	      3.59726777	     -0.06965932	      1.23679079	     -0.51306617	    -22.84477687	     14.13606446	    133.27195389	    101.67483829	     -7.14007665	    -10.27272714	    -18.06994383	     21.80347983	     69.48696165
      1.56666670	     -0.81242402	      3.36601900	     -3.75442273	     -0.01852985	      1.14944911	     -0.07452418	     -4.19769498	     -3.50974155	     -4.37911041	      2.73067056	      7.75284680	     -9.86996811	      0.00000000	     -6.07543344	      1.24705379	    -15.05225375	      0.22596435	      3.70286652	     -2.65316739	      0.00000000	      4.19923528	      0.23913040	     -0.26077795	      5.37590103	    -21.05381564	     19.37016068	    132.60473809	    101.68528838	     -7.85415940	     -9.47531214	    -20.62927582	     20.62523956	     68.72399083
